<mxfile host="app.diagrams.net" modified="2023-12-10T23:43:27.932Z" agent="Mozilla/5.0 (Macintosh; Intel Mac OS X 10_15_7) AppleWebKit/605.1.15 (KHTML, like Gecko) Version/17.1 Safari/605.1.15" etag="5ghhK-ushw-xpp5JsVkt" version="22.1.7" type="device">
  <diagram name="Page 2" id="xV-DdXl6V7auyKvFXf8r">
    <mxGraphModel dx="1026" dy="624" grid="1" gridSize="10" guides="1" tooltips="1" connect="1" arrows="1" fold="1" page="1" pageScale="1" pageWidth="827" pageHeight="1169" math="0" shadow="0">
      <root>
        <mxCell id="0" />
        <mxCell id="1" parent="0" />
        <mxCell id="FENImdkoo7jtKO7wnyn3-3" value="" style="edgeStyle=orthogonalEdgeStyle;rounded=0;orthogonalLoop=1;jettySize=auto;html=1;" edge="1" parent="1" source="FENImdkoo7jtKO7wnyn3-1" target="FENImdkoo7jtKO7wnyn3-2">
          <mxGeometry relative="1" as="geometry" />
        </mxCell>
        <mxCell id="FENImdkoo7jtKO7wnyn3-1" value="&lt;font style=&quot;font-size: 14px;&quot;&gt;Начало&lt;/font&gt;" style="strokeWidth=2;html=1;shape=mxgraph.flowchart.terminator;whiteSpace=wrap;" vertex="1" parent="1">
          <mxGeometry x="320" y="20" width="160" height="60" as="geometry" />
        </mxCell>
        <mxCell id="FENImdkoo7jtKO7wnyn3-2" value="&lt;font style=&quot;font-size: 14px;&quot;&gt;Инициализация начальных значений total, persistence, n=octaves-1&lt;/font&gt;" style="whiteSpace=wrap;html=1;strokeWidth=2;" vertex="1" parent="1">
          <mxGeometry x="320" y="100" width="160" height="70" as="geometry" />
        </mxCell>
        <mxCell id="FENImdkoo7jtKO7wnyn3-7" value="" style="edgeStyle=orthogonalEdgeStyle;rounded=0;orthogonalLoop=1;jettySize=auto;html=1;fontFamily=Helvetica;fontSize=12;fontColor=default;" edge="1" parent="1" source="FENImdkoo7jtKO7wnyn3-4" target="FENImdkoo7jtKO7wnyn3-6">
          <mxGeometry relative="1" as="geometry" />
        </mxCell>
        <mxCell id="FENImdkoo7jtKO7wnyn3-4" value="&lt;font style=&quot;font-size: 14px;&quot;&gt;Цикл по ii от 0 до n&lt;/font&gt;" style="strokeWidth=2;html=1;shape=stencil(1VbBcoIwEP0ajjiRDFaPHWpPjhcPPa+4asaQMAlV+/eNRqYEC6VrL53hkH0L7+1bsoGIZ3YPJUYJU1BgxF+iJFloXTpgIQpRudAt9z4xYT48+XA29SHYEvPKY0cwAtYSfcZWRh/wJDbVjUGoPRrPyucRe3b3XC6e5VopRyK0skGmkXdkIJR7lp09GRulXubjFvuodAoFVmgC9Mve0gNR8kpWGg9TWhGUQke17k9Kb79XGtOU5pTutbXGA8WWBF9sxJKW3Gw6UG9F0ptR3ZF6WU8dwV2HHs8c0jWAPFtDftgZ/a4231ZZwmW47xJ1utBHbGy6Vq/6GlAzSKEaDE8PM7Qa+AcUaTqEAkzuFiYcdBP6OMdwFjY2uoLLqwhyEswOY8cSbyXsgpQ9IZYN+DZvdbU8qHZCMMz+k19KsX12KTuEstFzqS32nAcOvxu2K9oxoTzbaoM9o7sVUvpPdNepcEdwRf0vwxX4BA==);whiteSpace=wrap;" vertex="1" parent="1">
          <mxGeometry x="320" y="190" width="160" height="60" as="geometry" />
        </mxCell>
        <mxCell id="FENImdkoo7jtKO7wnyn3-5" style="edgeStyle=orthogonalEdgeStyle;rounded=0;orthogonalLoop=1;jettySize=auto;html=1;exitX=0.5;exitY=1;exitDx=0;exitDy=0;entryX=0.5;entryY=0;entryDx=0;entryDy=0;entryPerimeter=0;fontFamily=Helvetica;fontSize=12;fontColor=default;" edge="1" parent="1" source="FENImdkoo7jtKO7wnyn3-2" target="FENImdkoo7jtKO7wnyn3-4">
          <mxGeometry relative="1" as="geometry" />
        </mxCell>
        <mxCell id="FENImdkoo7jtKO7wnyn3-9" value="" style="edgeStyle=orthogonalEdgeStyle;rounded=0;orthogonalLoop=1;jettySize=auto;html=1;fontFamily=Helvetica;fontSize=12;fontColor=default;" edge="1" parent="1" source="FENImdkoo7jtKO7wnyn3-6" target="FENImdkoo7jtKO7wnyn3-8">
          <mxGeometry relative="1" as="geometry" />
        </mxCell>
        <mxCell id="FENImdkoo7jtKO7wnyn3-6" value="&lt;font style=&quot;font-size: 14px;&quot;&gt;frequency = pow(2, ii)&lt;br&gt;amplitude = pow(p, ii)&lt;/font&gt;" style="whiteSpace=wrap;html=1;strokeWidth=2;" vertex="1" parent="1">
          <mxGeometry x="320" y="270" width="160" height="60" as="geometry" />
        </mxCell>
        <mxCell id="FENImdkoo7jtKO7wnyn3-8" value="&lt;font style=&quot;font-size: 14px;&quot;&gt;total = total + Interpolate(&lt;br&gt;x*frequency, y*frequency, z*frequency&lt;br&gt;)*amplitude;&lt;/font&gt;" style="shape=process;whiteSpace=wrap;html=1;backgroundOutline=1;strokeWidth=2;" vertex="1" parent="1">
          <mxGeometry x="320" y="350" width="160" height="110" as="geometry" />
        </mxCell>
        <mxCell id="FENImdkoo7jtKO7wnyn3-14" value="" style="edgeStyle=orthogonalEdgeStyle;rounded=0;orthogonalLoop=1;jettySize=auto;html=1;fontFamily=Helvetica;fontSize=12;fontColor=default;" edge="1" parent="1" source="FENImdkoo7jtKO7wnyn3-10" target="FENImdkoo7jtKO7wnyn3-13">
          <mxGeometry relative="1" as="geometry" />
        </mxCell>
        <mxCell id="FENImdkoo7jtKO7wnyn3-10" value="&lt;font style=&quot;font-size: 14px;&quot;&gt;Конец цикла по ii&lt;/font&gt;" style="strokeWidth=2;html=1;shape=stencil(1VbBcoIwEP0ajjiRDFaPHWpPjhcPPa+4asaQMAlV+/eNRqYEC6VrL53hkH0L7+1bsoGIZ3YPJUYJU1BgxF+iJFloXTpgIQpRudAt9z4xYT48+XA29SHYEvPKY0cwAtYSfcZWRh/wJDbVjUGoPRrPyucRe3b3XC6e5VopRyK0skGmkXdkIJR7lp09GRulXubjFvuodAoFVmgC9Mve0gNR8kpWGg9TWhGUQke17k9Kb79XGtOU5pTutbXGA8WWBF9sxJKW3Gw6UG9F0ptR3ZF6WU8dwV2HHs8c0jWAPFtDftgZ/a4231ZZwmW47xJ1utBHbGy6Vq/6GlAzSKEaDE8PM7Qa+AcUaTqEAkzuFiYcdBP6OMdwFjY2uoLLqwhyEswOY8cSbyXsgpQ9IZYN+DZvdbU8qHZCMMz+k19KsX12KTuEstFzqS32nAcOvxu2K9oxoTzbaoM9o7sVUvpPdNepcEdwRf0vwxX4BA==);whiteSpace=wrap;direction=west;" vertex="1" parent="1">
          <mxGeometry x="320" y="480" width="160" height="60" as="geometry" />
        </mxCell>
        <mxCell id="FENImdkoo7jtKO7wnyn3-12" style="edgeStyle=orthogonalEdgeStyle;rounded=0;orthogonalLoop=1;jettySize=auto;html=1;exitX=0.5;exitY=1;exitDx=0;exitDy=0;entryX=0.506;entryY=0.883;entryDx=0;entryDy=0;entryPerimeter=0;fontFamily=Helvetica;fontSize=12;fontColor=default;" edge="1" parent="1" source="FENImdkoo7jtKO7wnyn3-8" target="FENImdkoo7jtKO7wnyn3-10">
          <mxGeometry relative="1" as="geometry" />
        </mxCell>
        <mxCell id="FENImdkoo7jtKO7wnyn3-16" value="" style="edgeStyle=orthogonalEdgeStyle;rounded=0;orthogonalLoop=1;jettySize=auto;html=1;fontFamily=Helvetica;fontSize=12;fontColor=default;" edge="1" parent="1" source="FENImdkoo7jtKO7wnyn3-13" target="FENImdkoo7jtKO7wnyn3-15">
          <mxGeometry relative="1" as="geometry" />
        </mxCell>
        <mxCell id="FENImdkoo7jtKO7wnyn3-13" value="&lt;font style=&quot;font-size: 14px;&quot;&gt;Корректирование полученного значения от 0 до 1&lt;/font&gt;" style="whiteSpace=wrap;html=1;strokeWidth=2;" vertex="1" parent="1">
          <mxGeometry x="320" y="560" width="160" height="60" as="geometry" />
        </mxCell>
        <mxCell id="FENImdkoo7jtKO7wnyn3-15" value="&lt;font style=&quot;font-size: 14px;&quot;&gt;Конец&lt;/font&gt;" style="whiteSpace=wrap;html=1;strokeWidth=2;" vertex="1" parent="1">
          <mxGeometry x="320" y="640" width="160" height="50" as="geometry" />
        </mxCell>
      </root>
    </mxGraphModel>
  </diagram>
</mxfile>
